<?xml version="1.0" standalone="no"?> <!DOCTYPE svg PUBLIC "-//W3C//DTD SVG 1.0//EN" "http://www.w3.org/TR/2001/REC-SVG-20010904/DTD/svg10.dtd" > <svg xmlns="http://www.w3.org/2000/svg" width="100%" height="100%">
<defs >
<font id="tlcarialroundedmtboldregular" horiz-adv-x="1144" ><font-face
    font-family="TLC - Arial Rounded MT Bold"
    units-per-em="2048"
    panose-1="0 0 0 0 0 0 0 0 0 0"
    ascent="1938"
    descent="-457"
    alphabetic="0" />
<missing-glyph horiz-adv-x="472" d="M0 700V0H432V700H0ZM50 50V650H382V50H50Z" />
<glyph unicode=" " glyph-name="space" horiz-adv-x="512" />
<glyph unicode="!" glyph-name="exclam" horiz-adv-x="682" d="M231 635Q240 542 261 497Q282 451 336 451Q389 451 412 498Q434 544 442 633L485 1126Q492 1189 492 1260Q492 1371 463 1432Q434 1491 348 1491Q277 1491 234 1445Q190 1398 190 1315Q190 1254
199 1114L231 635ZM342 -23Q403 -23 447 17Q492 58 492 127Q492 189 448 233Q404 276 340 276Q277 276 234 233Q190 189 190 127Q190 56 236 17Q280 -23 342 -23Z" />
<glyph unicode="&quot;" glyph-name="quotedbl" horiz-adv-x="981" d="M373 944L420 1219V1466H113V1219L166 944H373ZM823 944L870 1219V1466H563V1219L616 944H823Z" />
<glyph unicode="#" glyph-name="numbersign" horiz-adv-x="1130" d="M117 178Q112 152 108 128Q102 100 102 76Q102 32 131 3Q159 -25 211 -25Q275 -25 295 13Q314 50 332 135L379 365H600L563 178Q549 114 549 76Q549 32 578 3Q606 -25 657 -25Q701 -25 726 -2Q750
21 759 50Q771 98 778 135L825 365H979Q1047 365 1081 396Q1114 426 1114 475Q1114 525 1080 556Q1045 588 979 588H868L928 879H979Q1046 879 1080 909T1114 989Q1114 1097 971 1100L1008 1288Q1008 1289 1009 1292T1011 1301T1013 1312Q1016 1324 1020 1350Q1022
1376 1022 1391Q1022 1437 994 1464Q966 1491 913 1491Q867 1491 845 1469Q821 1446 812 1415Q805 1389 793 1331L745 1102H526L563 1288Q580 1382 580 1389Q580 1433 552 1461T471 1489Q433 1489 410 1472Q387 1456 373 1422Q358 1384 348 1331L301 1102H152Q86
1102 51 1072Q16 1040 16 991Q16 944 52 912Q87 879 152 879H256L199 588H152Q85 588 51 557Q16 525 16 475Q16 368 154 365L117 178ZM702 879L645 588H422L481 879H702Z" />
<glyph unicode="$" glyph-name="dollar" horiz-adv-x="1217" d="M670 1593Q670 1675 606 1675Q543 1675 543 1591V1485Q337 1467 227 1357T117 1075Q117 944 173 859Q228 775 319 730Q404 686 543 647V182Q476 201 436 237Q394 274 375 317Q352 367 328 442Q316
481 285 501Q254 522 209 522Q154 522 116 484Q78 444 78 397Q78 331 106 265Q135 196 193 135Q252 71 339 30Q425 -11 543 -25V-295Q543 -340 558 -363Q571 -385 608 -385Q647 -385 659 -358Q670 -330 670 -272V-23Q814 -11 917 52Q1022 116 1075 215Q1128 315
1128 428Q1128 520 1095 596Q1061 671 999 727Q940 780 868 808Q804 833 670 870V1286Q796 1246 829 1120Q857 1014 956 1014Q1008 1014 1045 1051Q1081 1087 1081 1137Q1081 1182 1057 1236Q1031 1291 987 1341Q930 1408 854 1441Q776 1475 670 1485V1593ZM543
907Q453 940 409 981T365 1100Q365 1183 412 1224Q458 1264 543 1290V907ZM670 610Q773 577 828 530Q881 482 881 395Q881 314 826 253Q770 192 670 172V610Z" />
<glyph unicode="%" glyph-name="percent" horiz-adv-x="1749" d="M676 1090Q676 1185 656 1257Q637 1327 595 1378Q556 1426 495 1451Q437 1475 358 1475Q250 1475 181 1430Q112 1386 80 1298Q49 1212 49 1081Q49 959 89 876Q130 792 201 753Q271 713 362 713Q508
713 592 806T676 1090ZM489 1100Q489 965 463 901Q436 838 362 838Q314 838 285 867Q258 894 247 951Q236 1009 236 1096Q236 1180 247 1238Q258 1294 286 1322Q314 1350 362 1350Q432 1350 461 1291Q489 1232 489 1100ZM1700 367Q1700 461 1680 535Q1661 604 1619
654Q1577 702 1519 726T1382 750Q1220 750 1146 652Q1071 553 1071 358Q1071 237 1112 153Q1153 70 1224 30Q1294 -10 1386 -10Q1532 -10 1616 83T1700 367ZM1513 377Q1513 242 1486 179Q1459 115 1386 115Q1315 115 1286 177Q1257 240 1257 373Q1257 460 1269
515Q1279 568 1308 597Q1336 625 1386 625Q1456 625 1485 566Q1513 507 1513 377ZM1343 1343Q1380 1401 1380 1423Q1380 1452 1362 1470Q1342 1487 1313 1487Q1282 1487 1266 1469Q1247 1447 1227 1413L389 59Q369 28 369 8Q369 -20 392 -37Q414 -55 438 -55Q479
-55 510 0L1343 1343Z" />
<glyph unicode="&amp;" glyph-name="ampersand" horiz-adv-x="1556" d="M317 1155Q317 1078 356 1004Q393 932 469 836Q382 791 322 748Q260 703 215 652Q171 600 147 539Q123 476 123 401Q123 324 155 248Q186 172 253 110Q320 47 419 12Q517 -25 643 -25Q744
-25 821 -6Q900 13 970 52Q1042 92 1104 152Q1241 39 1291 5Q1334 -25 1382 -25Q1428 -25 1466 11Q1503 45 1503 98Q1503 137 1485 161Q1463 187 1386 249Q1337 288 1268 346Q1326 443 1358 525Q1389 603 1389 649Q1389 696 1353 731Q1317 764 1270 764Q1220 764
1193 730Q1166 698 1134 619Q1104 547 1087 514Q1061 539 1014 591Q981 628 931 688Q888 740 838 799Q981 884 1056 968Q1130 1051 1130 1163Q1130 1244 1085 1321Q1038 1398 947 1444Q855 1491 729 1491T508 1446Q414 1401 366 1325Q317 1249 317 1155ZM600 676Q698
557 770 476Q834 403 930 313Q878 264 841 240Q798 211 750 194Q703 178 651 178Q597 178 552 197Q503 218 470 252Q434 288 416 330Q397 371 397 418Q397 500 448 558Q499 618 600 676ZM702 950Q644 1023 634 1036Q606 1074 591 1105Q573 1140 573 1169Q573 1226
620 1270Q666 1313 735 1313T850 1271Q895 1229 895 1167Q895 1104 850 1060Q801 1013 702 950Z" />
<glyph unicode="&apos;" glyph-name="quotesingle" horiz-adv-x="492" d="M352 944L399 1219V1466H92V1219L145 944H352Z" />
<glyph unicode="(" glyph-name="parenleft" horiz-adv-x="725" d="M129 530Q129 377 156 245Q184 110 235 -9Q287 -135 365 -264Q416 -345 444 -376Q476 -411 504 -420Q531 -430 578 -430Q627 -430 627 -403Q627 -394 584 -301Q540 -206 497 -90Q454 28 419 189Q385
347 385 530Q385 709 420 875Q454 1036 495 1147Q538 1262 581 1356Q627 1454 627 1464Q627 1491 578 1491Q535 1491 505 1483Q474 1473 444 1440Q410 1403 365 1327Q285 1197 234 1072Q180 941 155 813Q129 678 129 530Z" />
<glyph unicode=")" glyph-name="parenright" horiz-adv-x="725" d="M598 530Q598 642 583 746Q568 846 539 944Q509 1038 465 1134Q423 1226 362 1327Q296 1437 258 1465Q220 1491 150 1491Q100 1491 100 1464Q100 1456 142 1368Q183 1281 229 1159Q273 1043 308
875Q342 714 342 530Q342 350 309 187Q274 20 230 -98Q183 -222 142 -306Q100 -394 100 -403Q100 -430 150 -430Q218 -430 256 -402T362 -264Q483 -64 540 121Q598 308 598 530Z" />
<glyph unicode="*" glyph-name="asterisk" horiz-adv-x="897" d="M504 1221Q512 1288 519 1337Q521 1353 524 1382T529 1423Q532 1458 532 1470Q532 1513 509 1541Q485 1567 449 1567Q412 1567 389 1541Q365 1514 365 1477Q365 1447 374 1366Q381 1284 395 1221Q283
1276 269 1283Q216 1309 177 1325Q140 1339 117 1339Q85 1339 59 1316Q33 1292 33 1257Q33 1239 45 1218Q55 1196 68 1190Q135 1161 208 1143Q263 1129 358 1114Q260 1025 166 897Q156 884 156 856Q156 827 181 802Q205 776 242 776Q272 776 297 799Q322 823 347
865Q367 900 449 1047Q525 893 572 835Q619 776 657 776T719 800T743 856Q743 882 733 899Q724 913 695 947T653 999Q653 1000 649 1004T633 1021T610 1045Q570 1088 541 1114Q694 1136 825 1188Q839 1194 852 1216Q864 1237 864 1257Q864 1292 839 1316Q813 1339
778 1339Q758 1339 722 1325Q687 1311 628 1281Q579 1256 504 1221Z" />
<glyph unicode="+" glyph-name="plus" horiz-adv-x="1194" d="M725 211V592H1110V854H725V1237H467V854H84V592H467V211H725Z" />
<glyph unicode="," glyph-name="comma" horiz-adv-x="641" d="M326 -27Q326 -125 209 -190Q168 -216 168 -256Q168 -283 188 -303Q208 -324 238 -324Q286 -324 348 -273Q408 -224 450 -136Q492 -50 492 49Q492 124 470 174Q447 225 409 250Q369 276 322 276Q257
276 211 233Q164 189 164 127Q164 55 212 14Q261 -27 326 -27Z" />
<glyph unicode="-" glyph-name="hyphen" horiz-adv-x="682" d="M500 412Q576 412 611 446Q647 479 647 532Q647 586 611 620Q574 653 500 653H184Q110 653 74 620Q37 586 37 532Q37 479 75 446Q112 412 184 412H500Z" />
<glyph unicode="." glyph-name="period" horiz-adv-x="641" d="M322 -25Q381 -25 427 16Q471 57 471 127Q471 189 427 233Q383 276 319 276Q257 276 213 232Q170 189 170 127Q170 56 215 15Q259 -25 322 -25Z" />
<glyph unicode="/" glyph-name="slash" horiz-adv-x="575" d="M528 1288Q549 1370 549 1401Q549 1443 523 1467Q496 1491 446 1491Q387 1491 368 1457Q348 1422 326 1331L47 178Q27 84 27 63Q27 -25 129 -25Q170 -25 192 -6T224 45Q234 78 248 135L528 1288Z" />
<glyph unicode="0" glyph-name="zero" horiz-adv-x="1217" d="M1120 719Q1120 1022 1044 1186Q1000 1281 937 1346Q874 1409 789 1444Q705 1477 602 1477Q446 1477 334 1402Q220 1324 162 1182Q129 1099 112 974Q96 856 96 702Q96 586 111 485Q125 383 156 301Q218
147 338 63Q459 -23 610 -23Q743 -23 850 41Q960 106 1026 223Q1081 320 1100 437Q1120 559 1120 719ZM846 739Q846 546 825 427Q804 308 752 244T608 180Q520 180 467 242Q416 302 393 423Q371 540 371 731Q371 1009 423 1141Q474 1274 606 1274Q697 1274 750
1215Q801 1157 824 1039Q846 925 846 739Z" />
<glyph unicode="1" glyph-name="one" horiz-adv-x="1217" d="M578 137Q578 56 615 16Q653 -25 713 -25Q850 -25 850 176V1321Q850 1393 818 1434T733 1475Q686 1475 669 1457Q648 1434 596 1361Q541 1284 468 1220Q393 1156 274 1100Q193 1063 161 1038Q129 1014
129 963Q129 919 162 886Q193 852 236 852Q324 852 578 1047V137Z" />
<glyph unicode="2" glyph-name="two" horiz-adv-x="1217" d="M457 236Q486 278 506 301Q563 370 713 492Q864 615 927 673Q992 730 1053 832Q1114 932 1114 1057Q1114 1135 1085 1210Q1055 1283 1002 1339Q948 1396 879 1427Q771 1475 618 1475Q490 1475 397 1438Q302
1400 241 1339Q179 1277 148 1203T117 1059Q117 1002 150 969T233 936Q290 936 320 972Q350 1010 373 1075Q395 1142 406 1157Q481 1272 612 1272Q675 1272 727 1244Q778 1216 810 1166Q840 1115 840 1051Q840 991 812 931T729 811Q671 750 592 694Q546 662 439
565Q332 466 199 328Q166 292 140 235Q113 175 113 139Q113 82 155 42Q197 0 272 0H1008Q1074 0 1107 34Q1139 69 1139 117Q1139 172 1098 204T979 236H457Z" />
<glyph unicode="3" glyph-name="three" horiz-adv-x="1217" d="M561 885H520Q450 885 413 856Q377 826 377 778Q377 729 407 702Q436 674 492 674Q509 674 546 678T608 682Q722 682 786 616Q850 549 850 432Q850 352 813 293Q776 233 718 203Q660 172 598 172Q490
172 431 240Q371 307 319 446Q311 469 285 486Q260 502 231 502Q176 502 138 467Q100 431 100 373Q100 329 132 259Q163 191 225 126Q286 62 381 18Q474 -25 596 -25Q713 -25 812 13T980 117Q1051 183 1088 268Q1124 354 1124 444Q1124 520 1097 586Q1070 650 1017
705Q963 759 885 801Q966 869 1010 941Q1053 1011 1053 1112Q1053 1188 1023 1254T934 1370T795 1447Q714 1473 618 1473Q506 1473 417 1442Q327 1410 267 1358Q207 1307 175 1249Q143 1190 143 1139Q143 1084 177 1053Q210 1020 250 1020Q284 1020 310 1032T346
1065Q361 1100 384 1148Q402 1189 427 1220Q450 1248 490 1265Q530 1282 590 1282Q681 1282 733 1227Q786 1171 786 1094Q786 993 720 939Q652 885 561 885Z" />
<glyph unicode="4" glyph-name="four" horiz-adv-x="1217" d="M717 127Q717 52 752 14Q786 -25 842 -25Q898 -25 933 13Q967 50 967 127V313H1028Q1104 313 1142 340Q1180 366 1180 424Q1180 495 1134 516Q1087 537 1010 537H967V1311Q967 1485 815 1485Q767 1485
735 1454Q704 1425 649 1352L119 643Q110 632 98 615T82 594Q66 573 53 553Q38 529 32 512Q25 494 25 473Q25 400 73 356Q119 313 215 313H717V127ZM287 537L717 1118V537H287Z" />
<glyph unicode="5" glyph-name="five" horiz-adv-x="1217" d="M948 1219Q1022 1219 1060 1251T1098 1335Q1098 1454 942 1454H414Q328 1454 290 1415Q251 1375 238 1290L154 811Q143 745 143 743Q143 698 181 663Q218 627 268 627Q312 627 383 680Q451 732 489
753Q526 774 612 774Q682 774 739 741Q795 707 830 639Q864 572 864 475Q864 385 833 316T743 206Q685 166 608 166Q524 166 456 216Q388 266 348 354Q308 451 223 451Q174 451 142 416Q109 382 109 342Q109 279 156 193Q203 106 314 41Q425 -25 604 -25Q765 -25
887 45Q1010 116 1074 234Q1139 353 1139 498Q1139 598 1103 685Q1067 771 1004 836Q941 899 858 935Q774 971 678 971Q558 971 416 895L473 1219H948Z" />
<glyph unicode="6" glyph-name="six" horiz-adv-x="1217" d="M371 793Q385 1066 457 1171Q491 1221 546 1254Q598 1284 651 1284Q718 1284 767 1248Q818 1209 840 1151Q857 1104 893 1078Q929 1051 971 1051Q1019 1051 1050 1085Q1081 1117 1081 1159Q1081 1228
1032 1301Q981 1376 885 1425Q787 1475 659 1475Q527 1475 422 1425Q320 1376 245 1277Q173 1181 133 1030Q94 882 94 692Q94 462 159 300Q224 140 345 57Q466 -25 635 -25Q781 -25 897 40T1077 219Q1141 334 1141 475Q1141 572 1108 661Q1075 750 1015 816Q953
881 874 917Q792 952 698 952Q598 952 519 913Q438 873 371 793ZM641 172Q536 172 465 262Q395 351 395 487Q395 570 430 634Q465 697 521 729Q576 762 639 762Q705 762 758 728T843 628Q874 563 874 471Q874 338 808 255Q742 172 641 172Z" />
<glyph unicode="7" glyph-name="seven" horiz-adv-x="1217" d="M319 1452Q241 1452 196 1432Q152 1412 152 1343Q152 1278 194 1248Q234 1217 319 1217H854Q730 1059 637 896Q546 734 484 581Q424 430 396 317Q369 208 369 143Q369 59 406 18Q443 -25 504 -25Q568
-25 607 15Q645 55 666 156Q675 197 687 283Q700 375 709 418Q720 472 743 549Q800 728 869 852Q933 970 1002 1060Q1051 1122 1117 1212Q1167 1282 1167 1323Q1167 1392 1124 1422Q1080 1452 985 1452H319Z" />
<glyph unicode="8" glyph-name="eight" horiz-adv-x="1217" d="M137 1094Q137 887 342 791Q88 690 88 422Q88 296 148 195Q208 93 326 35Q443 -23 610 -23Q771 -23 888 35Q1006 93 1067 196Q1128 297 1128 424Q1128 512 1100 581Q1072 649 1015 705Q959 758 874
791Q974 840 1025 917Q1075 994 1075 1092Q1075 1168 1046 1238Q1018 1305 957 1361Q898 1414 807 1446Q718 1477 598 1477Q458 1477 352 1424Q246 1372 192 1283Q137 1195 137 1094ZM854 509T854 432T822 294Q791 235 734 201Q678 168 608 168Q538 168 483 201Q426
233 395 293Q362 352 362 430Q362 552 431 620Q501 688 602 688Q674 688 732 657Q791 625 822 568Q854 509 854 432ZM604 1286Q666 1286 714 1259T789 1185Q815 1138 815 1079Q815 1035 800 999Q785 962 758 936Q730 909 692 894Q653 879 606 879Q512 879 454 936Q395
992 395 1077Q395 1170 453 1228Q510 1286 604 1286Z" />
<glyph unicode="9" glyph-name="nine" horiz-adv-x="1217" d="M834 657Q821 386 748 279Q711 225 661 197Q609 168 553 168Q488 168 438 205Q388 241 365 301Q348 349 312 375Q277 399 233 399Q186 399 154 366Q123 334 123 291Q123 224 173 150Q222 77 319 27T545
-23Q679 -23 781 26Q886 75 960 174Q1034 274 1073 420Q1112 565 1112 758Q1112 931 1075 1066Q1037 1203 969 1292Q899 1382 799 1428Q697 1475 569 1475Q458 1475 365 1437Q275 1401 205 1331Q139 1265 102 1171Q66 1078 66 975Q66 880 98 792Q129 704 190 639Q248
573 331 537Q411 500 506 500Q606 500 687 540Q768 579 834 657ZM811 963Q811 879 776 817Q739 754 684 723Q627 690 565 690Q464 690 398 769T332 981Q332 1114 398 1197Q464 1278 559 1278Q614 1278 661 1254Q706 1231 741 1188Q773 1147 793 1089Q811 1030 811
963Z" />
<glyph unicode=":" glyph-name="colon" horiz-adv-x="641" d="M322 -25Q381 -25 427 16Q471 57 471 127Q471 189 427 233Q383 276 319 276Q257 276 213 232Q170 189 170 127Q170 56 215 15Q259 -25 322 -25ZM170 936Q170 877 214 831Q258 786 319 786Q374 786
423 833Q471 880 471 936Q471 1005 427 1046Q384 1085 322 1085Q258 1085 215 1046Q170 1007 170 936Z" />
<glyph unicode=";" glyph-name="semicolon" horiz-adv-x="641" d="M307 -27Q307 -125 190 -190Q150 -215 150 -256Q150 -284 169 -303Q188 -324 219 -324Q268 -324 329 -273Q389 -224 431 -136Q473 -50 473 49Q473 124 451 174Q428 225 390 250Q350 276 303 276Q238
276 192 233Q145 189 145 127Q145 55 193 14Q242 -27 307 -27ZM170 936Q170 893 191 860Q210 826 246 806Q281 786 322 786Q378 786 425 833Q471 879 471 936Q471 1005 427 1046Q384 1085 322 1085Q258 1085 215 1046Q170 1007 170 936Z" />
<glyph unicode="&lt;" glyph-name="less" horiz-adv-x="1194" d="M1100 451L399 727L1100 997V1282L94 846V604L1100 168V451Z" />
<glyph unicode="=" glyph-name="equal" horiz-adv-x="1194" d="M1110 371V633H84V371H1110ZM1110 815V1077H84V815H1110Z" />
<glyph unicode="&gt;" glyph-name="greater" horiz-adv-x="1194" d="M1100 604V844L94 1278V997L797 725L94 449V166L1100 604Z" />
<glyph unicode="?" glyph-name="question" horiz-adv-x="1174" d="M90 1073Q90 1027 129 988Q166 948 223 948Q317 948 352 1061Q389 1171 440 1225Q492 1280 602 1280Q697 1280 756 1225Q815 1169 815 1090Q815 1048 796 1014Q776 980 748 951Q712 915 655 866Q582
802 539 756Q496 710 470 648Q444 585 444 502Q444 436 480 401Q514 367 567 367Q666 367 686 471Q695 515 703 540Q708 560 718 579Q729 599 749 622Q768 644 803 676Q913 774 974 833Q1024 883 1056 943Q1090 1007 1090 1092Q1090 1200 1030 1292Q968 1385 858
1438Q746 1491 602 1491Q445 1491 329 1427Q212 1362 151 1266Q90 1169 90 1073ZM578 -23Q638 -23 682 17Q727 58 727 127Q727 190 684 233T578 276Q513 276 470 233Q426 189 426 127Q426 56 472 17Q516 -23 578 -23Z" />
<glyph unicode="@" glyph-name="at" horiz-adv-x="2005" d="M1243 948Q1159 1083 979 1083Q822 1083 698 986Q574 888 506 737Q438 584 438 428Q438 278 504 174Q568 72 675 28Q782 -16 894 7Q1007 30 1094 115Q1109 55 1154 28Q1198 0 1280 0Q1420 0 1541 60Q1662
118 1752 222Q1841 325 1889 453Q1937 580 1937 715Q1937 886 1878 1030Q1818 1172 1705 1276Q1591 1381 1434 1436Q1276 1491 1085 1491Q854 1491 661 1414Q469 1338 335 1201Q200 1063 130 879Q59 693 59 481Q59 277 128 109Q196 -59 332 -181Q465 -302 663 -367T1106
-432Q1270 -432 1409 -402Q1548 -372 1660 -314Q1771 -258 1856 -173Q1938 -90 1991 18H1778Q1690 -94 1561 -156Q1432 -217 1247 -240Q1015 -264 829 -223T514 -86Q382 11 315 153Q246 296 246 467Q246 594 278 720Q309 844 371 946Q441 1065 543 1143T782 1265Q919
1307 1081 1307Q1239 1307 1368 1263Q1494 1220 1580 1141Q1666 1063 1712 957Q1757 850 1757 731Q1757 588 1694 466Q1629 343 1545 274Q1459 203 1405 203Q1388 203 1378 216Q1366 230 1366 252Q1366 272 1380 342L1532 1059H1268L1243 948ZM696 430Q696 546
734 657Q771 764 843 835Q914 903 1001 903Q1047 903 1080 887Q1112 872 1139 838Q1162 808 1176 764Q1188 720 1188 668Q1188 559 1151 447Q1114 332 1043 257Q971 182 877 182Q795 182 746 246Q696 311 696 430Z" />
<glyph unicode="A" glyph-name="A" horiz-adv-x="1473" d="M1098 166Q1105 149 1132 88Q1152 43 1168 22Q1184 0 1210 -12Q1235 -25 1270 -25Q1330 -25 1373 18Q1415 60 1415 111Q1415 160 1370 268L987 1214Q978 1237 964 1275T943 1328Q925 1371 900 1407Q876
1443 833 1468Q790 1491 729 1491T627 1468T560 1406Q535 1369 512 1311Q490 1252 473 1212L98 260Q77 206 65 171Q55 141 55 109Q55 56 98 16Q142 -25 197 -25Q264 -25 292 14Q322 53 362 162L432 350H1028L1098 166ZM510 573L727 1178L948 573H510Z" />
<glyph unicode="B" glyph-name="B" horiz-adv-x="1473" d="M786 0Q902 0 989 12Q1075 22 1143 51Q1250 98 1313 197Q1376 295 1376 418Q1376 685 1087 776Q1307 878 1307 1098Q1307 1162 1286 1220T1225 1325Q1183 1373 1133 1403Q1074 1439 995 1453Q921 1466
813 1466H338Q243 1466 201 1424Q158 1381 158 1284V182Q158 88 200 44Q241 0 338 0H786ZM764 651Q918 651 997 601Q1075 552 1075 440Q1075 223 774 223H455V651H764ZM455 1243H696Q858 1243 937 1207Q1016 1170 1016 1059Q1016 1006 991 965Q959 906 899 885Q838
864 727 864H455V1243Z" />
<glyph unicode="C" glyph-name="C" horiz-adv-x="1516" d="M1409 463Q1409 517 1371 555Q1334 592 1280 592Q1218 592 1190 556Q1163 520 1143 461Q1098 338 1010 275Q922 211 793 211Q676 211 587 267Q499 322 451 437Q403 550 403 721Q403 977 512 1116Q620
1255 803 1255Q918 1255 997 1201Q1075 1147 1133 1038Q1167 974 1197 945Q1226 918 1282 918Q1333 918 1369 957T1405 1047Q1405 1139 1331 1245Q1256 1350 1118 1420Q978 1491 801 1491Q654 1491 526 1439Q396 1386 301 1288Q205 1188 154 1048Q102 910 102 731Q102
622 123 525Q141 433 184 343Q225 256 283 188Q345 114 426 66Q502 20 598 -3Q690 -25 809 -25Q963 -25 1077 24Q1194 74 1266 152Q1342 232 1375 312Q1409 392 1409 463Z" />
<glyph unicode="D" glyph-name="D" horiz-adv-x="1516" d="M344 1466Q248 1466 205 1423T162 1284V209Q162 136 175 94Q187 49 228 25Q268 0 350 0H737Q841 0 919 13Q998 26 1069 58Q1137 89 1198 143Q1274 212 1321 300Q1370 389 1392 496Q1415 608 1415 737Q1415
1137 1186 1333Q1097 1410 990 1438Q884 1466 731 1466H344ZM459 1231H655Q789 1231 887 1202Q983 1172 1049 1064Q1114 955 1114 739Q1114 431 965 305Q932 276 887 260Q846 245 800 240Q763 236 684 236H459V1231Z" />
<glyph unicode="E" glyph-name="E" horiz-adv-x="1366" d="M1126 1237Q1197 1237 1232 1269Q1266 1300 1266 1352T1232 1435T1126 1466H342Q280 1466 239 1448Q198 1428 179 1389T160 1284V182Q160 86 203 43Q245 0 342 0H1149Q1219 0 1255 33Q1290 65 1290 117Q1290
171 1255 204Q1218 236 1149 236H457V653H1073Q1141 653 1175 685Q1208 716 1208 766T1175 847Q1140 877 1073 877H457V1237H1126Z" />
<glyph unicode="F" glyph-name="F" horiz-adv-x="1237" d="M1036 1237Q1107 1237 1142 1269Q1176 1300 1176 1352T1142 1435T1036 1466H336Q274 1466 233 1448Q192 1428 173 1389T154 1284V156Q154 65 196 20Q237 -25 303 -25Q368 -25 410 20Q451 64 451 156V639H940Q1006
639 1041 669Q1075 699 1075 750Q1075 800 1042 832Q1008 862 940 862H451V1237H1036Z" />
<glyph unicode="G" glyph-name="G" horiz-adv-x="1622" d="M1499 596Q1499 672 1473 710Q1445 749 1403 759Q1357 770 1298 770H961Q900 770 865 738Q829 706 829 657Q829 597 872 572Q913 547 997 547H1227V309Q1132 258 1044 232Q953 205 850 205Q638 205 520
344Q401 484 401 741Q401 862 432 958Q463 1058 520 1124Q576 1191 658 1227Q740 1262 842 1262Q942 1262 1007 1232Q1071 1202 1109 1158Q1144 1118 1202 1028Q1221 1001 1252 986Q1280 971 1313 971Q1372 971 1413 1011Q1454 1050 1454 1106Q1454 1158 1418 1225Q1383
1291 1311 1352Q1242 1411 1126 1452Q1012 1491 864 1491Q683 1491 542 1439T301 1287Q202 1188 151 1046T100 733Q100 560 153 418Q206 277 303 178Q400 80 540 27Q678 -25 848 -25Q993 -25 1116 8Q1238 41 1372 113Q1419 139 1448 165Q1478 194 1488 226Q1499
261 1499 315V596Z" />
<glyph unicode="H" glyph-name="H" horiz-adv-x="1556" d="M462 1311Q462 1403 421 1447Q379 1491 312 1491Q244 1491 205 1446Q165 1400 165 1311V156Q165 67 205 21T312 -25Q378 -25 420 20T462 156V649H1103V156Q1103 67 1143 21T1250 -25Q1316 -25 1358 20T1400
156V1311Q1400 1403 1359 1447Q1317 1491 1250 1491Q1184 1491 1144 1446Q1103 1400 1103 1311V891H462V1311Z" />
<glyph unicode="I" glyph-name="I" horiz-adv-x="641" d="M172 156Q172 66 214 21Q254 -25 319 -25Q386 -25 428 20Q469 66 469 156V1311Q469 1401 428 1447Q386 1491 319 1491Q254 1491 213 1446Q172 1400 172 1311V156Z" />
<glyph unicode="J" glyph-name="J" horiz-adv-x="1174" d="M1012 1311Q1012 1402 972 1446Q932 1491 862 1491Q794 1491 755 1446Q715 1402 715 1311V500Q715 211 518 211Q444 211 404 244Q363 277 347 323Q328 377 313 446Q296 518 267 552Q237 586 178 586Q116
586 78 549Q39 512 39 442Q39 378 59 303Q78 233 111 174Q173 68 272 22Q372 -25 520 -25Q684 -25 800 43T965 231Q995 303 1004 373Q1012 448 1012 543V1311Z" />
<glyph unicode="K" glyph-name="K" horiz-adv-x="1516" d="M459 1311Q459 1401 418 1447Q376 1491 309 1491Q241 1491 202 1446Q162 1402 162 1311V221Q162 152 165 114Q168 79 182 49Q202 14 236 -5Q271 -25 309 -25Q375 -25 417 20Q459 64 459 156V459L702 692L1053
152Q1079 108 1101 72Q1129 27 1167 2Q1206 -25 1268 -25Q1334 -25 1373 11Q1411 47 1411 96Q1411 142 1389 187Q1366 234 1323 295L907 891L1268 1233Q1335 1297 1335 1362Q1335 1416 1296 1454Q1256 1491 1192 1491Q1142 1491 1114 1470Q1085 1450 1042 1405L459
797V1311Z" />
<glyph unicode="L" glyph-name="L" horiz-adv-x="1237" d="M451 1311Q451 1401 410 1447Q368 1491 301 1491Q236 1491 195 1446Q154 1400 154 1311V182Q154 86 197 43Q239 0 336 0H1053Q1127 0 1164 34Q1202 67 1202 121Q1202 174 1164 209Q1124 244 1053 244H451V1311Z" />
<glyph unicode="M" glyph-name="M" horiz-adv-x="1706" d="M655 221Q666 180 679 133Q689 93 710 55Q729 21 766 -2T854 -25Q922 -25 962 10Q1001 44 1016 88Q1034 145 1053 221L1288 1155V143Q1288 60 1326 17Q1364 -25 1423 -25Q1486 -25 1524 17Q1561 58 1561
143V1303Q1561 1398 1511 1433Q1462 1466 1376 1466H1284Q1202 1466 1164 1451Q1126 1436 1108 1397Q1089 1355 1067 1270L854 467L641 1270Q619 1355 600 1397Q582 1436 545 1451T424 1466H332Q246 1466 197 1433Q147 1398 147 1303V143Q147 58 185 17Q222 -25
283 -25Q346 -25 383 17Q420 58 420 143V1155L655 221Z" />
<glyph unicode="N" glyph-name="N" horiz-adv-x="1556" d="M547 1313Q540 1324 525 1348T501 1386Q480 1419 457 1443Q435 1464 407 1478Q380 1491 338 1491Q286 1491 243 1463T180 1389Q164 1350 164 1276V145Q164 63 202 19T303 -25Q364 -25 403 18T442 145V1004L999
150Q1031 104 1047 82Q1070 49 1099 23Q1128 -2 1159 -13Q1190 -25 1231 -25Q1391 -25 1391 168V1321Q1391 1406 1354 1449Q1317 1491 1253 1491Q1191 1491 1155 1449Q1118 1406 1118 1321V449L547 1313Z" />
<glyph unicode="O" glyph-name="O" horiz-adv-x="1622" d="M805 1491Q636 1491 505 1439Q373 1386 281 1287Q189 1187 141 1047Q92 907 92 737Q92 574 139 430T276 187Q368 86 503 31Q641 -25 811 -25Q984 -25 1118 29Q1253 84 1344 185Q1436 287 1482 426Q1528
564 1528 735Q1528 965 1444 1136Q1359 1307 1197 1399Q1033 1491 805 1491ZM1227 737Q1227 564 1171 444Q1114 325 1019 268Q923 211 809 211Q720 211 646 244Q570 277 514 344Q457 408 425 511Q393 613 393 737Q393 859 425 961Q457 1061 511 1124Q564 1187 641
1222Q716 1255 805 1255Q930 1255 1027 1195Q1123 1134 1175 1016Q1227 899 1227 737Z" />
<glyph unicode="P" glyph-name="P" horiz-adv-x="1366" d="M729 571Q1001 571 1140 687Q1278 802 1278 1026Q1278 1132 1244 1215T1145 1357Q1081 1414 989 1440Q896 1466 729 1466H348Q250 1466 205 1424T160 1284V154Q160 67 201 21Q241 -25 309 -25Q373 -25
415 21Q457 68 457 156V571H729ZM657 1243Q855 1243 920 1178Q977 1116 977 1020Q977 938 940 889Q902 839 833 817T657 795H457V1243H657Z" />
<glyph unicode="Q" glyph-name="Q" horiz-adv-x="1622" d="M1339 182Q1528 386 1528 735Q1528 965 1444 1136Q1359 1307 1197 1399Q1033 1491 805 1491Q636 1491 505 1439Q373 1386 281 1287Q189 1187 141 1047Q92 907 92 737Q92 573 139 430Q186 289 277 187Q368
84 505 30Q639 -25 811 -25Q1021 -25 1167 49Q1252 -11 1311 -49Q1373 -89 1425 -113Q1472 -135 1507 -135Q1549 -135 1579 -103Q1608 -71 1608 -39Q1608 6 1583 31Q1558 55 1481 97Q1407 136 1339 182ZM1106 344Q891 496 801 496Q772 496 746 473Q721 451 721
420Q721 386 747 366Q771 348 844 312Q911 279 961 242Q884 211 809 211Q630 211 511 348Q393 484 393 737Q393 859 425 961Q457 1061 511 1124Q564 1187 641 1222Q716 1255 805 1255Q930 1255 1027 1195Q1123 1134 1175 1016Q1227 899 1227 737Q1227 611 1198
512Q1168 415 1106 344Z" />
<glyph unicode="R" glyph-name="R" horiz-adv-x="1473" d="M559 627Q638 627 690 606T793 528Q843 470 907 362L1026 164Q1069 92 1093 58Q1118 21 1151 -1Q1186 -25 1235 -25Q1277 -25 1309 -8Q1340 8 1360 37Q1378 66 1378 94Q1378 123 1347 197Q1317 266 1259
364Q1202 456 1130 538Q1058 620 979 662Q1166 702 1260 801Q1352 899 1352 1063Q1352 1143 1325 1215Q1296 1286 1244 1340Q1191 1394 1122 1423Q1064 1449 994 1458Q919 1466 823 1466H340Q244 1466 201 1423T158 1284V156Q158 68 197 21Q236 -25 307 -25Q373
-25 414 19T455 156V627H559ZM729 1243Q883 1243 934 1221Q988 1199 1020 1152Q1051 1106 1051 1044Q1051 966 1013 922Q974 877 901 859Q829 840 721 840H455V1243H729Z" />
<glyph unicode="S" glyph-name="S" horiz-adv-x="1366" d="M1277 440Q1277 552 1238 628T1128 754Q1055 805 957 839Q848 877 732 903Q617 933 590 941Q546 955 505 977T439 1032Q415 1064 415 1108Q415 1179 486 1230Q557 1280 671 1280Q796 1280 851 1234Q907
1188 947 1104Q978 1047 1005 1021Q1033 995 1082 995Q1139 995 1176 1038Q1213 1079 1213 1133Q1213 1190 1183 1252Q1152 1315 1088 1369Q1025 1423 925 1458Q826 1491 691 1491Q524 1491 397 1441Q271 1390 206 1296Q140 1202 140 1081Q140 954 203 869Q266
783 372 734Q478 684 636 647Q754 620 825 596Q895 572 940 527Q984 482 984 408Q984 316 902 255Q819 193 687 193Q591 193 532 224Q475 253 441 301Q409 346 380 418Q357 478 325 507Q292 537 245 537Q188 537 150 499Q112 459 112 406Q112 312 175 215Q239 115
337 57Q477 -25 695 -25Q876 -25 1008 35T1209 201Q1277 306 1277 440Z" />
<glyph unicode="T" glyph-name="T" horiz-adv-x="1280" d="M1112 1221Q1189 1221 1226 1255Q1264 1288 1264 1343T1227 1432T1112 1466H168Q94 1466 57 1433Q18 1400 18 1343Q18 1288 55 1255Q92 1221 168 1221H492V156Q492 65 534 20Q574 -25 641 -25Q706 -25
747 20Q788 64 788 156V1221H1112Z" />
<glyph unicode="U" glyph-name="U" horiz-adv-x="1556" d="M162 606Q162 440 198 321Q234 202 311 125T510 12Q630 -25 801 -25Q944 -25 1049 9Q1156 44 1235 117Q1328 204 1362 319Q1395 434 1395 606V1311Q1395 1401 1354 1447Q1312 1491 1245 1491Q1179 1491
1138 1447Q1098 1403 1098 1311V584Q1098 396 1026 304Q954 211 780 211Q654 211 584 257Q514 301 487 385Q459 466 459 590V1311Q459 1402 419 1446Q379 1491 309 1491Q243 1491 203 1446Q162 1400 162 1311V606Z" />
<glyph unicode="V" glyph-name="V" horiz-adv-x="1409" d="M377 1296Q343 1400 313 1445Q282 1491 205 1491Q142 1491 102 1449Q61 1406 61 1356Q61 1334 68 1307Q75 1276 84 1253L102 1202L451 252Q476 182 489 148Q508 98 534 61Q560 21 601 -1Q642 -25 702
-25T804 -1Q844 23 870 61Q893 95 914 148Q927 182 952 252L1307 1210L1325 1261Q1334 1284 1340 1311Q1346 1337 1346 1358Q1346 1390 1328 1422Q1310 1452 1277 1472Q1245 1491 1206 1491Q1154 1491 1124 1467Q1094 1442 1081 1412Q1067 1379 1042 1303L709 313L377
1296Z" />
<glyph unicode="W" glyph-name="W" horiz-adv-x="1921" d="M1198 231Q1226 129 1243 86Q1259 44 1300 9Q1340 -25 1409 -25Q1480 -25 1521 10Q1560 45 1577 92Q1591 131 1618 238L1862 1225Q1884 1313 1884 1356Q1884 1414 1844 1453Q1803 1491 1745 1491T1657
1461Q1626 1432 1614 1393Q1600 1356 1587 1288L1395 432L1178 1233Q1150 1335 1135 1375Q1119 1417 1078 1455Q1036 1491 961 1491Q888 1491 844 1456Q802 1423 782 1373Q764 1329 739 1233L524 432L332 1288Q311 1388 283 1439Q255 1491 174 1491Q116 1491 75
1452Q35 1413 35 1356Q35 1309 57 1225L301 238Q303 232 326 143Q339 92 362 54Q386 15 420 -4Q454 -25 510 -25Q578 -25 619 10Q661 46 677 88Q691 124 721 231L961 1110L1198 231Z" />
<glyph unicode="X" glyph-name="X" horiz-adv-x="1237" d="M106 285Q33 179 33 104Q33 41 69 8Q104 -25 158 -25Q192 -25 219 -14Q244 -4 264 16T297 55Q303 63 342 125L616 543L874 137Q936 43 941 36Q960 9 988 -7Q1016 -25 1059 -25Q1097 -25 1129 -8Q1160
8 1177 38Q1194 67 1194 102Q1194 140 1175 181Q1153 226 1114 285L803 764L1092 1196Q1169 1312 1169 1378Q1169 1423 1134 1458Q1098 1491 1042 1491Q1009 1491 988 1481Q966 1471 945 1449Q926 1429 906 1396Q881 1359 856 1319L621 963L401 1319Q338 1420 306
1455Q272 1491 209 1491Q156 1491 118 1458Q80 1423 80 1382Q80 1342 100 1297Q121 1248 158 1190L434 764L106 285Z" />
<glyph unicode="Y" glyph-name="Y" horiz-adv-x="1280" d="M487 156Q487 64 528 20Q568 -25 635 -25Q700 -25 742 20T784 156V621L1151 1184Q1194 1247 1216 1292Q1235 1330 1235 1370Q1235 1418 1198 1455Q1160 1491 1104 1491Q1068 1491 1043 1478Q1017 1464
998 1441Q973 1411 960 1388Q944 1360 918 1319L641 874L367 1319Q303 1424 273 1457Q242 1491 180 1491Q121 1491 83 1454Q43 1417 43 1366Q43 1336 63 1293Q82 1251 129 1176L487 621V156Z" />
<glyph unicode="Z" glyph-name="Z" horiz-adv-x="1323" d="M121 342Q117 338 109 329T94 310T79 293Q63 274 42 246Q26 223 20 206Q12 184 12 160Q12 87 61 44Q111 0 207 0H1159Q1228 0 1262 31T1296 115Q1296 167 1262 195T1159 223H383L1087 1061Q1169 1156
1196 1200T1223 1315Q1223 1466 1061 1466H227Q159 1466 125 1435Q90 1403 90 1352Q90 1303 125 1273Q160 1243 227 1243H874L121 342Z" />
<glyph unicode="[" glyph-name="bracketleft" horiz-adv-x="725" d="M573 1278Q702 1278 702 1384Q702 1433 670 1462T573 1491H324Q231 1491 189 1447Q147 1404 147 1309V-203Q147 -265 166 -304Q185 -346 224 -365Q264 -385 324 -385H573Q702 -385 702 -279Q702
-172 573 -172H406V1278H573Z" />
<glyph unicode="\" glyph-name="backslash" horiz-adv-x="575" d="M248 1331Q225 1426 207 1457Q188 1491 129 1491Q80 1491 54 1467Q27 1443 27 1401Q27 1376 47 1288L326 135Q342 69 352 39Q361 11 383 -6Q403 -25 446 -25Q549 -25 549 63Q549 96 528 178L248 1331Z" />
<glyph unicode="]" glyph-name="bracketright" horiz-adv-x="725" d="M319 -172H154Q91 -172 57 -201Q23 -231 23 -279T57 -355Q90 -385 154 -385H401Q494 -385 536 -340Q578 -297 578 -203V1309Q578 1404 536 1447Q492 1491 401 1491H154Q91 1491 57 1462Q23
1432 23 1384T57 1308Q90 1278 154 1278H319V-172Z" />
<glyph unicode="^" glyph-name="asciicircum" horiz-adv-x="1194" d="M401 692L598 1182L797 692H1079L713 1491H492L115 692H401Z" />
<glyph unicode="_" glyph-name="underscore" horiz-adv-x="1024" d="M-12 -256H1036V-154H-12V-256Z" />
<glyph unicode="`" glyph-name="grave" horiz-adv-x="682" d="M424 1364Q386 1436 357 1456Q327 1477 268 1477H133Q82 1477 82 1462Q82 1449 192 1344Q303 1238 330 1225Q388 1196 453 1196Q496 1196 496 1221Q496 1236 469 1280L424 1364Z" />
<glyph unicode="a" glyph-name="a" horiz-adv-x="1217" d="M831 129Q878 54 918 15Q958 -25 1001 -25Q1050 -25 1091 10Q1130 45 1130 86Q1130 112 1105 194Q1079 278 1079 354Q1079 380 1079 429T1081 503V666Q1081 818 1039 910Q995 1002 893 1045Q790 1087
610 1087Q450 1087 341 1043Q234 1000 182 931Q131 864 131 791Q131 744 165 716Q198 686 244 686Q295 686 311 705Q330 727 364 781Q402 840 454 868Q507 897 610 897Q731 897 770 847Q809 795 813 688Q728 662 654 646Q580 628 477 607T348 580Q223 553 153 474Q82
394 82 283Q82 199 125 129Q169 57 248 17Q328 -25 432 -25Q547 -25 640 14Q730 51 831 129ZM813 524V485Q813 342 776 281Q744 225 676 190Q607 154 526 154Q450 154 403 198T356 303Q356 363 396 397Q436 430 480 442Q524 452 639 478Q756 503 813 524Z" />
<glyph unicode="b" glyph-name="b" horiz-adv-x="1280" d="M393 1335Q393 1411 359 1451T262 1491Q202 1491 169 1449Q135 1406 135 1323V131Q135 55 170 15Q204 -25 262 -25Q319 -25 356 15Q393 53 393 131V158Q440 104 466 80Q495 53 532 30Q569 6 627 -10Q682
-25 745 -25Q848 -25 934 17Q1019 57 1079 134Q1140 212 1171 314T1202 541Q1202 708 1146 832Q1088 955 987 1019Q884 1083 748 1083Q630 1083 550 1041Q468 996 393 918V1335ZM406 524Q406 634 441 716Q476 796 537 839Q598 881 676 881Q752 881 809 839Q866
796 897 718Q928 641 928 532Q928 365 854 276Q779 186 676 186Q554 186 481 274Q406 361 406 524Z" />
<glyph unicode="c" glyph-name="c" horiz-adv-x="1217" d="M1120 313Q1120 356 1087 394Q1054 432 1004 432Q962 432 933 406Q904 380 879 334Q833 255 776 218Q717 180 635 180Q574 180 523 204Q472 226 436 273Q401 317 381 383Q362 446 362 524Q362 688 436
783Q509 877 631 877Q714 877 770 839Q825 801 874 725Q903 685 925 669Q948 651 981 651Q1033 651 1070 685Q1106 720 1106 768T1074 872Q1042 926 980 976Q921 1024 830 1056Q743 1087 635 1087Q463 1087 341 1017Q218 946 153 817Q88 687 88 520Q88 271 230
125Q372 -23 625 -23Q743 -23 839 9Q932 40 997 94Q1059 147 1090 204Q1120 263 1120 313Z" />
<glyph unicode="d" glyph-name="d" horiz-adv-x="1280" d="M889 131Q889 56 926 16Q962 -25 1018 -25Q1075 -25 1111 14T1147 131V1335Q1147 1412 1114 1452Q1080 1491 1018 1491Q956 1491 923 1448Q889 1405 889 1321V918Q812 1002 731 1043Q651 1083 532 1083Q328
1083 203 940T78 541Q78 421 110 316Q143 209 202 135Q265 56 347 17Q430 -25 528 -25Q602 -25 665 -4Q727 16 781 56Q834 95 889 158V131ZM352 532Q352 638 385 717Q416 794 476 839Q534 881 610 881Q681 881 743 840Q803 798 839 720Q874 639 874 532Q874 417
839 339Q804 262 744 224Q683 186 612 186Q540 186 481 226Q422 265 387 343Q352 422 352 532Z" />
<glyph unicode="e" glyph-name="e" horiz-adv-x="1217" d="M903 463Q1011 463 1069 494Q1128 524 1128 627Q1128 738 1071 845Q1013 953 900 1020Q785 1087 625 1087Q502 1087 401 1048Q300 1007 231 934Q162 860 126 757T90 532Q90 276 236 125Q382 -25 645 -25Q760
-25 849 5Q939 35 996 81Q1054 126 1083 176T1112 262Q1112 304 1086 327T1018 350Q979 350 958 332Q933 309 875 256Q848 231 805 204Q768 178 727 168Q686 156 637 156Q564 156 504 192Q444 227 407 299Q371 368 369 463H903ZM369 618Q382 756 449 827Q513 897
616 897Q723 897 789 828Q854 758 864 618H369Z" />
<glyph unicode="f" glyph-name="f" horiz-adv-x="682" d="M119 1061Q-18 1061 -18 963Q-18 919 15 892Q47 864 109 864H184V141Q184 60 223 18Q260 -25 319 -25Q380 -25 419 18Q457 61 457 141V864H524Q597 864 639 882Q680 900 680 967Q680 1061 524 1061H457V1126Q457
1208 478 1251T573 1294Q600 1294 639 1288T694 1282Q728 1282 753 1309Q778 1335 778 1374Q778 1491 539 1491Q402 1491 327 1457Q249 1422 217 1347Q184 1270 184 1143V1061H119Z" />
<glyph unicode="g" glyph-name="g" horiz-adv-x="1280" d="M1145 882Q1145 978 1119 1030T1014 1082Q958 1082 924 1043Q889 1003 889 933V896Q815 991 731 1035Q646 1080 530 1080Q434 1080 352 1045T209 943Q146 873 114 776Q80 678 80 554Q80 388 135 263Q192
135 293 67Q394 -3 532 -3Q647 -3 729 43Q810 87 874 177Q872 42 868 -18Q863 -79 841 -131Q817 -184 759 -214Q702 -243 594 -243Q542 -243 502 -234Q464 -226 434 -205Q404 -185 382 -158Q379 -155 336 -103Q291 -50 231 -50Q184 -50 149 -82Q115 -113 115 -163Q115
-229 175 -292T346 -394T598 -433Q754 -433 856 -402Q957 -373 1023 -307Q1088 -244 1116 -145Q1145 -46 1145 89V882ZM354 539Q354 703 425 792T612 881Q732 881 806 788Q879 696 879 528Q879 424 841 350T743 240Q682 203 614 203Q499 203 427 288Q354 373 354
539Z" />
<glyph unicode="h" glyph-name="h" horiz-adv-x="1237" d="M408 1325Q408 1407 372 1449Q334 1491 270 1491Q206 1491 171 1450Q135 1408 135 1325V141Q135 -25 270 -25Q335 -25 372 18Q408 60 408 141V502Q408 659 430 719Q458 790 518 833Q577 874 649 874Q758
874 797 804Q836 733 836 602V141Q836 -25 971 -25Q1034 -25 1071 17Q1108 58 1108 141V664Q1108 745 1098 804T1059 913Q1012 998 933 1041Q851 1085 748 1085Q681 1085 619 1068Q561 1051 510 1015Q462 981 408 920V1325Z" />
<glyph unicode="i" glyph-name="i" horiz-adv-x="555" d="M414 930Q414 1004 375 1044Q336 1085 276 1085Q217 1085 179 1044T141 922V141Q141 62 179 18Q216 -25 276 -25T375 17T414 141V930ZM279 1212Q333 1212 374 1248Q414 1282 414 1346T373 1445Q333 1479
279 1479Q223 1479 183 1442Q141 1404 141 1346Q141 1282 182 1247T279 1212Z" />
<glyph unicode="j" glyph-name="j" horiz-adv-x="555" d="M416 922Q416 1005 379 1045T281 1085Q219 1085 181 1044T143 922V2Q143 -108 125 -152Q106 -195 51 -195Q49 -195 15 -193Q7 -193 -25 -189Q-34 -188 -45 -188Q-92 -188 -121 -218Q-150 -250 -150 -297Q-150
-362 -86 -396T102 -430Q324 -430 391 -256Q402 -229 410 -165Q416 -104 416 -4V922ZM281 1212Q336 1212 376 1248Q416 1282 416 1346T375 1445Q335 1479 281 1479Q225 1479 185 1442Q143 1404 143 1346Q143 1282 184 1247T281 1212Z" />
<glyph unicode="k" glyph-name="k" horiz-adv-x="1174" d="M821 100Q869 27 894 2Q921 -25 971 -25Q1029 -25 1065 13Q1100 51 1100 115Q1100 139 1087 164Q1077 184 1042 238L762 678L907 811Q1018 912 1018 971Q1018 1020 984 1053Q949 1085 899 1085Q855 1085
826 1063Q794 1039 739 981L432 659V1321Q432 1405 395 1448T295 1491Q230 1491 195 1444Q160 1395 160 1305V141Q160 59 196 17T295 -25Q349 -25 391 18Q432 61 432 139V356L580 496L821 100Z" />
<glyph unicode="l" glyph-name="l" horiz-adv-x="555" d="M141 141Q141 62 179 18Q216 -25 276 -25Q337 -25 376 17Q414 58 414 141V1325Q414 1407 376 1450Q338 1491 276 1491T178 1449Q141 1408 141 1325V141Z" />
<glyph unicode="m" glyph-name="m" horiz-adv-x="1812" d="M1049 510Q1049 685 1079 754Q1107 809 1155 840Q1204 872 1257 872Q1324 872 1357 836Q1391 799 1398 747Q1405 698 1405 606V147Q1405 62 1445 19Q1484 -25 1546 -25Q1610 -25 1649 18Q1688 62 1688
147V680Q1688 838 1653 913Q1612 996 1532 1039Q1450 1083 1339 1083Q1243 1083 1164 1043Q1086 1003 1016 918Q967 1002 894 1042Q820 1083 717 1083Q617 1083 537 1043Q454 1001 385 918V944Q385 1011 348 1048T254 1085Q195 1085 161 1045Q125 1004 125 928V147Q125
62 165 19Q204 -25 266 -25Q329 -25 368 19Q406 63 406 147V516Q406 690 449 780Q491 872 625 872Q692 872 723 836Q753 800 761 742Q768 689 768 582V147Q768 62 807 18Q844 -25 907 -25Q971 -25 1010 18Q1049 62 1049 147V510Z" />
<glyph unicode="n" glyph-name="n" horiz-adv-x="1237" d="M389 934Q389 981 372 1017Q354 1051 325 1068T260 1085Q202 1085 167 1047Q133 1009 133 930V141Q133 62 171 18Q208 -25 268 -25Q329 -25 368 17Q406 58 406 141V483Q406 648 426 711Q455 788 514 831T647
874Q759 874 797 803Q834 732 834 596V141Q834 62 872 18Q909 -25 971 -25Q1032 -25 1069 17Q1106 58 1106 141V649Q1106 735 1098 797Q1091 854 1063 905Q1020 992 936 1038Q850 1085 743 1085Q633 1085 547 1041Q461 996 389 901V934Z" />
<glyph unicode="o" glyph-name="o" horiz-adv-x="1237" d="M1163 530Q1163 654 1126 755Q1089 857 1016 931Q944 1004 843 1045Q744 1085 618 1085Q496 1085 395 1046Q291 1004 223 933Q150 857 114 757Q76 652 76 530T114 306Q152 202 224 130Q295 56 395 15Q493
-25 618 -25Q744 -25 843 15Q942 53 1015 128Q1088 202 1125 305Q1163 410 1163 530ZM889 530Q889 364 816 272Q743 178 618 178Q535 178 476 221Q415 263 383 343Q350 422 350 530T383 719T477 842Q539 883 618 883Q742 883 816 790Q889 698 889 530Z" />
<glyph unicode="p" glyph-name="p" horiz-adv-x="1280" d="M393 932Q393 1006 357 1046Q319 1085 262 1085Q204 1085 169 1047Q135 1009 135 930V-248Q135 -337 160 -383Q186 -430 262 -430Q393 -430 393 -250V160Q465 69 545 22T741 -25Q838 -25 923 14Q1007
52 1069 124Q1131 195 1167 301Q1202 408 1202 532Q1202 705 1141 828Q1079 954 973 1018Q866 1083 741 1083Q636 1083 553 1039Q469 993 393 899V932ZM928 535Q928 425 893 344Q859 265 800 226Q742 186 674 186Q559 186 483 277Q406 368 406 530Q406 703 484
792Q561 881 674 881Q745 881 804 840Q861 799 895 721Q928 643 928 535Z" />
<glyph unicode="q" glyph-name="q" horiz-adv-x="1280" d="M889 -248Q889 -332 914 -381Q938 -430 1018 -430Q1147 -430 1147 -248V932Q1147 1008 1111 1047Q1075 1085 1018 1085T925 1046T889 932V899Q828 991 740 1038Q653 1083 543 1083Q414 1083 307 1018T140
829Q80 704 80 530Q80 360 140 235Q198 110 304 42Q407 -25 535 -25Q640 -25 725 17Q809 57 889 137V-248ZM354 532Q354 699 427 790T610 881Q664 881 712 860Q761 837 797 795Q833 754 856 685Q877 619 877 537Q877 420 840 342Q802 262 742 225Q680 186 608 186Q542
186 483 225Q425 262 390 343Q354 422 354 532Z" />
<glyph unicode="r" glyph-name="r" horiz-adv-x="897" d="M412 369Q412 487 420 578Q427 662 449 725Q470 787 508 819Q545 850 606 850Q650 850 708 832Q764 813 780 813Q820 813 855 846Q889 877 889 928Q889 998 808 1042Q728 1085 641 1085T504 1042Q453 1000
403 915Q400 998 370 1042Q340 1085 272 1085Q139 1085 139 901V141Q139 60 177 17Q214 -25 274 -25T373 17Q412 58 412 141V369Z" />
<glyph unicode="s" glyph-name="s" horiz-adv-x="1110" d="M1020 332Q1020 407 979 466Q939 522 857 567Q779 609 649 641Q552 664 481 685Q419 703 384 731Q348 758 348 801Q348 849 397 880T520 911Q592 911 634 887T707 823Q744 776 775 751Q803 727 846 727Q904
727 936 757Q967 787 967 834Q967 876 938 922Q909 965 852 1004Q798 1040 711 1063Q627 1085 520 1085Q383 1085 290 1042Q195 999 145 925Q96 852 96 770Q96 679 149 615Q202 552 291 514Q383 474 520 440Q644 410 700 377Q754 344 754 272Q754 225 702 189Q650
152 567 152Q466 152 408 188Q348 225 307 297Q286 335 263 356Q240 377 197 377Q148 377 116 345T84 268Q84 201 134 133T289 20T541 -25Q695 -25 803 17Q909 57 965 139Q1020 218 1020 332Z" />
<glyph unicode="t" glyph-name="t" horiz-adv-x="725" d="M156 1061Q94 1061 62 1034Q29 1006 29 963T60 892T150 864H186V340Q186 214 207 137Q226 62 293 18Q358 -25 487 -25Q621 -25 694 10Q766 44 766 111Q766 149 740 177Q712 203 680 203Q659 203 616 195Q576
186 551 186Q507 186 488 208Q469 229 464 264Q459 302 459 362V864H510Q592 864 635 886T678 963Q678 1006 648 1034Q617 1061 559 1061H459V1247Q459 1319 452 1354Q444 1392 416 1417Q374 1456 322 1456Q286 1456 255 1439Q225 1421 209 1393Q193 1367 190 1329Q186
1296 186 1225V1061H156Z" />
<glyph unicode="u" glyph-name="u" horiz-adv-x="1237" d="M850 129Q850 56 887 16Q923 -25 979 -25T1071 14Q1106 54 1106 131V922Q1106 1005 1069 1045T971 1085T872 1044T834 922V590Q834 396 811 336Q782 268 722 229Q660 188 592 188Q520 188 480 225Q439
260 422 326Q406 389 406 485V922Q406 1003 368 1044T268 1085Q207 1085 170 1045T133 922V381Q133 218 184 131Q228 58 306 18Q385 -23 483 -23Q564 -23 629 -2Q692 17 747 60Q799 100 850 164V129Z" />
<glyph unicode="v" glyph-name="v" horiz-adv-x="1110" d="M334 915Q301 1011 278 1046Q252 1085 184 1085Q150 1085 119 1068Q88 1050 72 1023Q55 994 55 967Q55 948 62 924Q68 897 78 875L96 827L356 184Q392 98 412 60Q429 27 463 2Q498 -25 555 -25Q600 -25
632 -8Q662 8 685 40Q707 71 724 113Q730 128 739 151T752 184L1014 834Q1020 848 1034 882Q1042 903 1049 927Q1055 951 1055 969Q1055 1016 1019 1050Q981 1085 930 1085Q875 1085 848 1053Q822 1021 793 942L555 295L334 915Z" />
<glyph unicode="w" glyph-name="w" horiz-adv-x="1665" d="M311 915Q284 1008 260 1047Q236 1085 168 1085Q117 1085 82 1050T47 971Q47 936 80 844L301 190Q322 131 326 120Q344 72 363 43Q384 10 416 -7Q448 -25 492 -25Q580 -25 615 32Q650 89 680 199L831
731L987 199Q1004 137 1024 82Q1040 38 1077 6Q1111 -25 1174 -25Q1234 -25 1269 4Q1302 31 1319 70Q1336 108 1364 190L1587 844Q1618 928 1618 971Q1618 1016 1582 1051Q1547 1085 1497 1085T1422 1063Q1396 1040 1385 1011Q1372 975 1356 915L1176 305L1014
872Q988 958 975 992Q962 1026 927 1056Q892 1085 831 1085Q772 1085 737 1056Q702 1026 690 994Q677 962 651 872L489 305L311 915Z" />
<glyph unicode="x" glyph-name="x" horiz-adv-x="1067" d="M733 88Q776 28 808 2Q840 -25 887 -25Q941 -25 976 6Q1012 38 1012 80Q1012 123 954 205L707 559L926 854Q955 892 971 922Q985 952 985 981Q985 1023 950 1055Q914 1085 860 1085Q814 1085 782 1059Q751
1034 707 973L535 731L358 973Q316 1031 285 1058Q253 1085 205 1085Q150 1085 116 1054T82 981Q82 928 139 854L358 559L111 205Q55 125 55 82T92 8Q128 -25 180 -25Q226 -25 258 1Q289 28 332 88L535 379L733 88Z" />
<glyph unicode="y" glyph-name="y" horiz-adv-x="1110" d="M393 -59Q365 -126 344 -160Q320 -196 295 -209Q267 -223 221 -223Q202 -223 176 -217Q155 -211 133 -211Q77 -211 49 -236Q20 -262 20 -309Q20 -378 80 -404Q141 -430 260 -430Q382 -430 456 -392T572
-285Q616 -214 662 -92L1018 840Q1029 870 1040 911Q1045 929 1053 965Q1053 996 1038 1024Q1021 1053 994 1069Q966 1085 934 1085Q890 1085 868 1070Q844 1055 823 1012Q799 963 776 893L557 268L326 940Q304 1009 273 1048Q243 1085 184 1085Q150 1085 119 1067Q87
1049 69 1019T51 954Q51 920 82 848L418 2L393 -59Z" />
<glyph unicode="z" glyph-name="z" horiz-adv-x="1067" d="M883 772Q905 795 930 824Q950 845 960 860Q972 877 980 899Q989 922 989 944Q989 1011 943 1036T809 1061H182Q121 1061 90 1033Q57 1004 57 958Q57 894 100 879T227 864H633Q608 830 567 780Q542 750
462 661Q337 521 326 509Q180 348 162 328Q86 244 50 198Q23 162 23 127Q23 68 62 34Q99 0 178 0H918Q983 0 1017 29Q1049 58 1049 104Q1049 152 1016 183Q983 213 918 213H383L883 772Z" />
<glyph unicode="{" glyph-name="braceleft" horiz-adv-x="788" d="M352 530Q426 576 467 635Q507 694 520 776Q534 859 535 987Q536 1118 544 1165Q551 1210 574 1227Q596 1244 655 1251Q693 1255 719 1287Q743 1318 743 1372Q743 1491 596 1491Q454 1491 371
1409Q286 1327 283 1188Q279 969 277 907Q276 851 263 799Q249 749 220 718Q186 684 117 641Q59 604 59 530Q59 479 79 456Q99 432 147 403Q196 372 224 339Q253 303 268 238Q274 211 277 119Q280 29 283 -125Q285 -216 323 -284Q362 -354 434 -392Q505 -430 596
-430Q743 -430 743 -309Q743 -256 718 -225Q692 -192 655 -188Q610 -181 590 -173Q571 -166 558 -141Q545 -117 540 -70Q535 -18 535 76Q535 210 519 293Q502 378 463 432Q422 487 352 530Z" />
<glyph unicode="|" glyph-name="bar" horiz-adv-x="575" d="M399 1354Q399 1420 369 1456Q337 1491 289 1491Q240 1491 208 1456T176 1354V-293Q176 -360 208 -395T289 -430Q337 -430 369 -395Q399 -360 399 -293V1354Z" />
<glyph unicode="}" glyph-name="braceright" horiz-adv-x="788" d="M436 530Q361 483 321 426Q281 370 268 292Q253 208 252 76Q252 -17 249 -65Q245 -113 234 -139Q222 -164 200 -173Q177 -182 133 -188Q109 -191 89 -206Q69 -222 57 -248Q45 -277 45 -309Q45
-367 83 -399Q120 -430 190 -430Q332 -430 418 -346Q503 -264 506 -125Q509 20 512 118Q513 214 527 264Q539 311 571 345Q604 378 672 420Q729 454 729 530Q729 584 708 609Q685 636 642 662Q600 686 567 723Q537 756 520 823Q512 858 506 1188Q504 1278 465 1347Q424
1417 354 1454T190 1491Q45 1491 45 1372Q45 1319 71 1287T133 1251Q172 1247 199 1238Q220 1229 232 1206Q243 1185 248 1133Q252 1088 252 987Q252 889 261 817Q270 742 292 691Q315 636 348 601Q381 565 436 530Z" />
<glyph unicode="~" glyph-name="asciitilde" horiz-adv-x="1194" d="M338 657Q398 657 451 640Q494 626 581 590Q658 556 721 539T854 522Q898 522 950 542Q1000 561 1050 593Q1101 626 1128 655V924Q1064 855 990 817Q917 780 854 780Q820 780 756 803Q703 822
627 853Q557 880 499 897Q436 915 367 915Q276 915 205 884T66 778V520Q197 657 338 657Z" />
<glyph unicode="&#x80;" glyph-name="PaddingCharacter" horiz-adv-x="40" />
</font>
</defs>
</svg>
