<svg id="Layer_2" data-name="Layer 2" xmlns="http://www.w3.org/2000/svg" viewBox="0 0 97.62 104.94"><defs><style>.cls-1{fill:#fff;}</style></defs><title>ap-1</title><path class="cls-1" d="M91.52,5.72H36.66C24.85,5.72,15.28,17.05,15.28,31V54.56c0,10.59,5.49,19.64,13.28,23.42-7.1,21.69-9.82,32.67-9.82,32.67L69.28,79.88H91.52c11.81,0,21.38-11.33,21.38-25.32V31c0-14-9.57-25.31-21.38-25.31Zm-3.2,54.36H36.83c-1.88,0-3.41-1.82-3.41-4.09S35,51.9,36.83,51.9H88.32c1.88,0,3.41,1.83,3.41,4.09s-1.53,4.09-3.41,4.09Zm7.73-13.64H37.31a4.1,4.1,0,0,1,0-8.19H96.05a4.1,4.1,0,0,1,0,8.19Zm0-13.65H37.31a4.1,4.1,0,0,1,0-8.18H96.05a4.1,4.1,0,0,1,0,8.18Z" transform="translate(-15.28 -5.72)"/></svg>