<svg id="Layer_4" data-name="Layer 4" xmlns="http://www.w3.org/2000/svg" viewBox="0 0 49.02 107.54"><defs><style>.cls-1{fill:#fff;}</style></defs><title>ap-2</title><path class="cls-1" d="M74.89,15.54c0,6.89-6.1,12.48-13.62,12.48S47.66,22.43,47.66,15.54,53.75,3.06,61.27,3.06,74.89,8.64,74.89,15.54Z" transform="translate(-37.85 -3.06)"/><path class="cls-1" d="M84.69,40.05c0-4.57-5.3-8.28-11.83-8.28h-21C45.33,31.77,40,35.48,40,40.05l0,.63,0,.49-2.18,25a4.92,4.92,0,0,0,9.81,0V48.33H50.2V106.1a4.92,4.92,0,0,0,9.8,0V74.22h4.72V106.1a4.92,4.92,0,0,0,9.81,0V48.33h2.53V66.14a4.92,4.92,0,0,0,9.81,0l-2.18-25,0-.49,0-.63Z" transform="translate(-37.85 -3.06)"/></svg>