<svg id="Layer_5" data-name="Layer 5" xmlns="http://www.w3.org/2000/svg" viewBox="0 0 113.28 102.44"><defs><style>.cls-1{fill:#fff;}</style></defs><title>ap-3</title><path class="cls-1" d="M118,34.53a10.79,10.79,0,0,0-3-5.47L94.72,9.2a11,11,0,0,0-5.92-3l0,0-.17-.13H58A10.77,10.77,0,0,0,47.15,16.79V44.53a27.49,27.49,0,0,1,3.59-3.87A28.31,28.31,0,0,1,54.33,38V16.79A3.67,3.67,0,0,1,58,13.17H84.6V28a10.88,10.88,0,0,0,11,10.77h15.28V88.27a3.65,3.65,0,0,1-3.69,3.61H58a3.66,3.66,0,0,1-3.7-3.61V84l-3.59,2.5L47.19,89A10.77,10.77,0,0,0,58,99h49.15a10.79,10.79,0,0,0,10.88-10.68V34.82l-.07-.29ZM91.79,28V16.31l15.72,15.4H95.59A3.77,3.77,0,0,1,91.79,28Z" transform="translate(-4.78 -6.11)"/><path class="cls-1" d="M97,60.78A26.21,26.21,0,0,1,96.61,65h9.13a3.54,3.54,0,1,0,0-7.07H96.79c.09.94.17,1.89.17,2.84Z" transform="translate(-4.78 -6.11)"/><path class="cls-1" d="M105.74,79.3a3.54,3.54,0,1,0,0-7.07H94.35a27.09,27.09,0,0,1-4.83,7.07Z" transform="translate(-4.78 -6.11)"/><path class="cls-1" d="M95.33,57.93a25.88,25.88,0,0,0-20.06-22.2,26.81,26.81,0,0,0-6-.68h-.22a26.31,26.31,0,0,0-18.31,7.57A26.18,26.18,0,0,0,47.15,47a25.25,25.25,0,0,0-3.22,20.35l.13.47L8.25,92.69A8,8,0,0,0,4.78,99.2l0,.16,0,.06a8,8,0,0,0,1.52,4.49l.89,1.25a8.27,8.27,0,0,0,6.69,3.39h0a8.36,8.36,0,0,0,4.73-1.48l1.13-.79h0l27.39-19,3.59-2.5,3.59-2.5.24-.16.42.26a26.42,26.42,0,0,0,8.31,3.49,27.51,27.51,0,0,0,6,.69h0A26.55,26.55,0,0,0,87.5,79.3a26,26,0,0,0,5.26-7.07,25.18,25.18,0,0,0,2-5.51l0-.06L95.15,65a25.23,25.23,0,0,0,.36-4.22h0a24.33,24.33,0,0,0-.18-2.84ZM32.42,93.87l-14,9.13a5.28,5.28,0,0,1-2.89.85,5.2,5.2,0,0,1-4.36-2.29,5,5,0,0,1-.88-2.84,5.09,5.09,0,0,1,2.33-4.28l14-9.12a5.3,5.3,0,0,1,7.27,1.42,5,5,0,0,1,.87,2.84,5.13,5.13,0,0,1-2.33,4.29ZM82,72.23a17.33,17.33,0,0,1-10.5,4.88l-1.73.09A17.36,17.36,0,0,1,54.33,68a16.66,16.66,0,0,1,0-15.49,17.39,17.39,0,0,1,32.55,5.47,15.56,15.56,0,0,1,.17,2.27,16.77,16.77,0,0,1-5.08,12Z" transform="translate(-4.78 -6.11)"/><path class="cls-1" d="M82.14,65l-.75-.7a1.44,1.44,0,0,0-1.82.7l0,.08c-1.58,3.84-5.64,6.19-10.3,6.21a14.31,14.31,0,0,1-5.29-1,1.45,1.45,0,0,0-1.88.79,1.39,1.39,0,0,0,.8,1.83h0a17.3,17.3,0,0,0,6.38,1.24h0a16.06,16.06,0,0,0,2.52-.22,15,15,0,0,0,4.86-1.66,12.28,12.28,0,0,0,5.56-6.09l0-1.14Z" transform="translate(-4.78 -6.11)"/></svg>