<?xml version="1.0" encoding="utf-8"?>
<!-- Generator: Adobe Illustrator 22.0.0, SVG Export Plug-In . SVG Version: 6.00 Build 0)  -->
<svg version="1.1" xmlns="http://www.w3.org/2000/svg" xmlns:xlink="http://www.w3.org/1999/xlink" x="0px" y="0px"
	 viewBox="0 0 556.5 122.3" style="enable-background:new 0 0 556.5 122.3;" xml:space="preserve">
<style type="text/css">
	.st0{fill:#FFFFFF;}
</style>
<g id="Layer_2">
</g>
<g id="Layer_1">
	<path class="st0" d="M74,52.6c-1.3-3.6-3.2-6.7-5.8-9.3c-2.5-2.6-5.6-4.6-9.1-6c-3.5-1.4-7.5-2.1-11.8-2.1c-4.3,0-8.2,0.7-11.7,2.1
		c-3.5,1.4-6.6,3.4-9,5.9c-2.5,2.6-4.4,5.6-5.7,9.3c-1.3,3.6-2,7.6-2,11.9c0,4.3,0.7,8.2,2,11.8c1.3,3.6,3.2,6.6,5.8,9.2
		c2.5,2.6,5.5,4.6,9,6c3.5,1.4,7.4,2.1,11.7,2.1c4.4,0,8.3-0.7,11.8-2.1c3.5-1.4,6.5-3.4,9-6c2.5-2.6,4.4-5.7,5.8-9.3
		c1.3-3.6,2-7.6,2-11.8C76,60.1,75.4,56.2,74,52.6L74,52.6z M57.7,78c-2.6,3.3-6,4.9-10.4,4.9c-2.9,0-5.4-0.7-7.5-2.2
		c-2.1-1.5-3.7-3.6-4.9-6.4c-1.1-2.8-1.7-6.1-1.7-9.8c0-3.8,0.6-7.1,1.7-9.9c1.2-2.8,2.8-5,4.9-6.4c2.1-1.5,4.6-2.2,7.4-2.2
		c4.3,0,7.8,1.6,10.4,4.9c2.6,3.3,3.9,7.8,3.9,13.7C61.6,70.2,60.3,74.8,57.7,78L57.7,78z M93.6,37.3c-0.8-1.3-2.5-2-4.8-2
		c-1.8,0-3.3,0.6-4.5,1.8c-1.2,1.2-1.8,2.6-1.8,4.2c0,1.2,0.6,3.5,1.7,6.7l11.6,34.4c0.3,0.9,0.8,2.1,1.3,3.7c0.6,1.6,1.2,2.9,1.9,4
		c0.7,1.1,1.7,2,2.8,2.6c1.1,0.6,2.4,0.9,4,0.9c3.1,0,5.2-1,6.5-3c1.2-2,2.4-4.9,3.4-8.8l7.9-28l8.2,28c0.7,2.5,1.3,4.6,1.9,6.1
		c0.6,1.6,1.5,2.9,2.8,4c1.2,1.1,3,1.6,5.1,1.6c2.1,0,3.8-0.5,5-1.5c1.2-1,2.1-2.2,2.7-3.5c0.6-1.3,1.3-3.4,2.4-6.3l11.7-34.4
		c1.1-3,1.6-5.2,1.6-6.7c0-1.6-0.6-3-1.9-4.2c-1.3-1.2-2.8-1.8-4.5-1.8c-1.7,0-3,0.4-3.9,1.2c-0.9,0.8-1.6,1.7-1.9,2.7
		c-0.4,1-0.9,2.7-1.5,5l-9.5,32.1l-8.5-29.8c-0.9-3-1.6-5.1-2.1-6.3c-0.5-1.2-1.3-2.3-2.5-3.4c-1.2-1-2.9-1.6-5-1.6
		c-2.1,0-3.8,0.5-5,1.6c-1.2,1-2,2.1-2.5,3.3c-0.4,1.1-1.1,3.3-2,6.4l-8.5,29.8l-9.4-32.1C95.3,41,94.4,38.7,93.6,37.3L93.6,37.3z
		 M226.6,52.6c-1.3-3.6-3.2-6.7-5.8-9.3c-2.5-2.6-5.6-4.6-9.1-6c-3.5-1.4-7.5-2.1-11.8-2.1c-4.3,0-8.2,0.7-11.7,2.1
		c-3.5,1.4-6.6,3.4-9,5.9c-2.5,2.6-4.4,5.6-5.7,9.3c-1.3,3.6-2,7.6-2,11.9c0,4.3,0.7,8.2,2,11.8c1.3,3.6,3.2,6.6,5.8,9.2
		c2.5,2.6,5.5,4.6,9,6c3.5,1.4,7.4,2.1,11.7,2.1c4.4,0,8.3-0.7,11.8-2.1c3.5-1.4,6.5-3.4,9-6c2.5-2.6,4.4-5.7,5.8-9.3
		c1.3-3.6,2-7.6,2-11.8C228.5,60.1,227.9,56.2,226.6,52.6L226.6,52.6z M210.3,78c-2.6,3.3-6,4.9-10.4,4.9c-2.9,0-5.4-0.7-7.5-2.2
		c-2.1-1.5-3.7-3.6-4.9-6.4c-1.1-2.8-1.7-6.1-1.7-9.8c0-3.8,0.6-7.1,1.7-9.9c1.2-2.8,2.8-5,4.9-6.4c2.1-1.5,4.6-2.2,7.4-2.2
		c4.3,0,7.8,1.6,10.4,4.9c2.6,3.3,3.9,7.8,3.9,13.7C214.1,70.2,212.8,74.8,210.3,78L210.3,78z M196.9,15.7c-1,0.7-2.2,2.3-3.6,4.9
		L191,25c-0.9,1.5-1.4,2.5-1.4,3.1c0,0.9,0.8,1.3,2.3,1.3c2.3,0,4.4-0.5,6.4-1.5c0.8-0.4,2.2-1.5,4.2-3.3c2-1.8,4-3.7,5.9-5.7
		c2-2,2.9-3.1,2.9-3.4c0-0.5-0.9-0.8-2.7-0.8h-7.1C199.4,14.7,197.9,15,196.9,15.7L196.9,15.7z M279.4,92.2c0.9,0.9,2.3,1.4,4,1.4
		c2,0,3.7-0.7,4.9-2c1.2-1.3,1.9-3.1,1.9-5.4c0-0.8-0.2-1.7-0.7-2.5c-0.5-0.9-1.3-2.2-2.3-3.9l-14.7-23.1l7.6-7
		c3.9-3.5,5.8-6.3,5.8-8.4c0-1.7-0.6-3.1-1.8-4.3c-1.2-1.1-2.7-1.7-4.5-1.7c-1.5,0-2.8,0.4-3.8,1.2c-1.1,0.8-2.6,2.2-4.6,4.3
		l-16.1,16.9V22.9c0-2.9-0.6-5.2-1.9-6.7c-1.3-1.5-3-2.3-5.3-2.3c-2.3,0-4,0.8-5.3,2.5c-1.2,1.7-1.8,4.1-1.8,7.3v61.2
		c0,2.9,0.6,5,1.9,6.5c1.3,1.5,3,2.2,5.2,2.2c1.9,0,3.6-0.7,5-2.2c1.5-1.5,2.2-3.6,2.2-6.4V73.6l7.8-7.4L275.6,87
		C277.2,89.5,278.5,91.3,279.4,92.2L279.4,92.2z M342.9,67.8c-1.5-2-3.6-3.8-6.4-5.3c-2.8-1.5-6.5-2.8-10.9-3.9
		c-3.8-0.9-6.7-1.7-8.8-2.3c-2.1-0.6-3.8-1.4-5.1-2.4c-1.3-1-1.9-2.2-1.9-3.7c0-1.6,0.9-3,2.6-4.1c1.7-1.1,3.9-1.7,6.5-1.7
		c2.5,0,4.5,0.4,6,1.3c1.5,0.8,2.7,2,3.8,3.4c1.3,1.7,2.5,2.9,3.5,3.8c1,0.8,2.3,1.3,3.8,1.3c2,0,3.6-0.5,4.7-1.6
		c1.1-1.1,1.7-2.4,1.7-4c0-1.5-0.5-3-1.6-4.6c-1-1.6-2.5-3-4.5-4.3c-2-1.3-4.4-2.3-7.4-3.1c-3-0.8-6.3-1.2-10-1.2
		c-4.7,0-8.8,0.8-12.1,2.3c-3.3,1.5-5.9,3.6-7.6,6.1c-1.7,2.6-2.6,5.3-2.6,8.1c0,3.2,0.9,5.9,2.8,8.1c1.9,2.2,4.3,4,7.4,5.3
		c3.1,1.3,7.1,2.6,12.1,3.9c4.4,1.1,7.5,2.2,9.4,3.3c1.9,1.2,2.9,3,2.9,5.5c0,1.6-0.9,3.1-2.8,4.4c-1.8,1.3-4.2,1.9-7.1,1.9
		c-3.5,0-6.3-0.6-8.4-1.9c-2.1-1.3-3.8-3.2-5.3-5.7c-0.7-1.3-1.5-2.4-2.3-3.1c-0.8-0.7-2-1.1-3.5-1.1c-1.7,0-3.1,0.6-4.3,1.7
		c-1.1,1.1-1.7,2.5-1.7,4c0,2.4,0.9,4.8,2.6,7.1c1.8,2.4,4.5,4.3,8.1,5.9c3.7,1.6,8.1,2.4,13.2,2.4c5.4,0,10-0.7,13.7-2.2
		c3.8-1.5,6.6-3.6,8.5-6.4c1.9-2.8,2.9-6.2,2.9-10.2C345,72.2,344.3,69.9,342.9,67.8L342.9,67.8z M398,91.5c1.4,1.4,2.9,2.1,4.4,2.1
		c1.8,0,3.3-0.6,4.7-1.8c1.4-1.2,2.1-2.5,2.1-4c0-0.8-0.4-2.7-1.3-5.7c-0.9-2.9-1.3-5.7-1.3-8.4c0-2.9,0.1-5.5,0.1-7.8
		c0-2.3,0-5.2,0-8.6c0-5.3-0.7-9.6-2.2-12.8c-1.5-3.2-4-5.6-7.6-7.1c-3.6-1.5-8.6-2.2-14.9-2.2c-5.6,0-10.4,0.8-14.1,2.3
		c-3.8,1.5-6.6,3.5-8.4,5.9c-1.8,2.4-2.7,4.8-2.7,7.4c0,1.6,0.6,2.9,1.8,4c1.2,1,2.6,1.6,4.2,1.6c1.8,0,3-0.3,3.5-1
		c0.5-0.6,1.5-2,2.8-4c1.3-2,2.9-3.6,4.7-4.6c1.8-1,4.6-1.5,8.2-1.5c4.2,0,7,0.9,8.4,2.7c1.3,1.8,2.1,4.5,2.3,8.3
		c-3,0.9-5.8,1.6-8.4,2.2c-2.6,0.6-5.7,1.3-9.3,2c-3.6,0.7-5.9,1.2-6.8,1.4c-4.3,0.9-7.8,2.8-10.2,5.6c-2.5,2.8-3.7,6.1-3.7,10
		c0,2.9,0.8,5.6,2.3,8.1c1.5,2.5,3.7,4.5,6.4,5.9c2.8,1.5,6,2.2,9.7,2.2c4,0,7.7-0.7,10.9-2c3.2-1.3,6.6-3.4,10.1-6.1
		C395.1,88.2,396.6,90.2,398,91.5L398,91.5z M392.5,66.8c0,5-0.6,8.5-1.9,10.7c-1.1,2-2.9,3.6-5.3,4.8c-2.4,1.2-5,1.9-7.9,1.9
		c-2.7,0-4.8-0.8-6.5-2.3c-1.6-1.5-2.5-3.4-2.5-5.5c0-2.1,0.7-3.7,2.1-4.9c1.4-1.2,2.9-2,4.4-2.4c1.5-0.4,4.3-1,8.3-1.9
		c4-0.9,7.1-1.7,9.2-2.4V66.8L392.5,66.8z M431.1,37.4c-1.3-1.4-2.9-2.1-5-2.1c-2.1,0-3.7,0.7-4.9,2c-1.2,1.3-1.8,3.4-1.8,6.1v61.9
		c0,3.1,0.4,5.5,1.3,7.1c0.9,1.6,2.7,2.4,5.4,2.4c4.6,0,6.9-3.2,6.9-9.5V83.9c2.5,3.2,5.2,5.6,8,7.3c2.8,1.6,6.2,2.5,10.3,2.5
		c3.4,0,6.6-0.7,9.5-2c3-1.3,5.5-3.3,7.7-5.8c2.2-2.5,3.9-5.6,5.1-9.3c1.2-3.7,1.9-7.8,1.9-12.2c0-6-1.1-11.2-3.2-15.6
		c-2.2-4.4-5.1-7.7-8.8-10c-3.7-2.3-7.8-3.4-12.2-3.4c-3.7,0-7,0.8-9.9,2.3c-2.9,1.6-5.7,4-8.4,7.3v-1.7
		C433,40.7,432.3,38.7,431.1,37.4L431.1,37.4z M459.3,74.2c-1.2,2.8-2.9,4.8-4.9,6.2c-2,1.4-4.2,2.1-6.6,2.1c-4,0-7.3-1.6-10-4.8
		c-2.7-3.2-4-7.6-4-13.3c0-6.1,1.4-10.7,4.1-13.8c2.7-3.1,6.1-4.7,10-4.7c2.5,0,4.8,0.7,6.8,2.2c2,1.5,3.7,3.5,4.8,6.3
		c1.2,2.7,1.7,6,1.7,9.7C461.1,68.1,460.5,71.5,459.3,74.2L459.3,74.2z M535.8,66.4c2.1-1.1,3.1-3.4,3.1-7c0-3.9-1-7.7-3-11.5
		c-2-3.7-5-6.8-9-9.2c-4-2.4-8.8-3.5-14.4-3.5c-4.3,0-8.2,0.7-11.8,2.1c-3.5,1.4-6.5,3.4-8.9,6c-2.4,2.6-4.3,5.7-5.5,9.3
		c-1.3,3.6-1.9,7.6-1.9,11.8c0,9,2.6,16.1,7.7,21.4c5.1,5.3,12.3,7.9,21.5,7.9c4,0,7.6-0.5,10.7-1.6c3.1-1.1,5.7-2.4,7.7-4
		c2-1.6,3.6-3.3,4.6-5c1-1.7,1.5-3.3,1.5-4.5c0-1.5-0.5-2.6-1.4-3.4c-0.9-0.8-2.1-1.2-3.6-1.2c-1.4,0-2.4,0.3-3.2,0.9
		c-1.8,1.7-3.2,3-4.4,4c-1.1,1-2.3,1.9-3.7,2.8c-1.3,0.9-2.7,1.5-4.1,1.9c-1.4,0.4-3,0.6-4.7,0.6c-2.6,0-4.9-0.6-7-1.9
		c-2.1-1.3-3.8-3.1-5.1-5.6c-1.3-2.5-1.9-5.4-2-8.6h28.1C530.8,68,533.7,67.4,535.8,66.4L535.8,66.4z M503.2,48.9
		c2.3-2.5,5.2-3.7,8.8-3.7c3.7,0,6.8,1.2,9.1,3.7c2.3,2.4,3.6,6.1,4,11h-26C499.5,55,500.9,51.3,503.2,48.9L503.2,48.9z"/>
</g>
</svg>
